<svg width="107" height="16" viewBox="0 0 107 16" fill="none" xmlns="http://www.w3.org/2000/svg">
<g clip-path="url(#clip0_6_34124)">
<path d="M8.096 15.4H11.88L8.602 9.746C10.296 8.888 11.44 7.172 11.44 5.28C11.44 2.354 9.086 0 6.16 0H0V15.4H3.52V10.34H5.192L8.096 15.4ZM3.52 3.3H6.16C7.128 3.3 7.92 4.158 7.92 5.28C7.92 6.402 7.128 7.26 6.16 7.26H3.52V3.3Z" fill="#303030"/>
<path d="M15.8146 11.22H23.6246C23.7126 10.802 23.7566 10.362 23.7566 9.9C23.7566 6.578 21.3806 4.092 18.1686 4.092C14.6926 4.092 12.3166 6.622 12.3166 9.9C12.3166 13.178 14.6486 15.708 18.4106 15.708C20.5006 15.708 22.1286 14.938 23.2066 13.442L20.5666 11.924C20.1266 12.408 19.3566 12.76 18.4546 12.76C17.2446 12.76 16.2326 12.364 15.8146 11.22ZM15.7486 8.756C16.0566 7.634 16.8926 7.018 18.1466 7.018C19.1366 7.018 20.1266 7.48 20.4786 8.756H15.7486Z" fill="#303030"/>
<path d="M30.8009 15.708C32.9569 15.708 34.8269 14.586 35.7729 12.87L32.8909 11.22C32.5389 11.99 31.7249 12.452 30.7569 12.452C29.3269 12.452 28.2709 11.418 28.2709 9.9C28.2709 8.382 29.3269 7.348 30.7569 7.348C31.7249 7.348 32.5169 7.81 32.8909 8.58L35.7729 6.908C34.8269 5.214 32.9349 4.092 30.8009 4.092C27.4569 4.092 24.9709 6.622 24.9709 9.9C24.9709 13.178 27.4569 15.708 30.8009 15.708Z" fill="#303030"/>
<path d="M40.5084 6.358V4.4H37.2084V15.4H40.5084V10.428C40.5084 8.25 42.4444 7.7 43.8084 7.92V4.18C42.4224 4.18 40.9484 4.884 40.5084 6.358Z" fill="#303030"/>
<path d="M52.4569 4.4V10.406C52.4569 11.968 51.6209 12.672 50.4109 12.672C49.3549 12.672 48.4969 12.034 48.4969 10.67V4.4H45.1969V11.154C45.1969 14.124 47.0889 15.708 49.3109 15.708C50.7629 15.708 51.8629 15.18 52.4569 14.366V15.4H55.7569V4.4H52.4569Z" fill="#303030"/>
<path d="M64.6231 7.568V4.4H62.3571V1.32L59.0571 2.31V4.4H57.2971V7.568H59.0571V11.462C59.0571 14.542 60.3111 15.84 64.6231 15.4V12.408C63.1711 12.496 62.3571 12.408 62.3571 11.462V7.568H64.6231Z" fill="#303030"/>
<path d="M69.2247 11.22H77.0347C77.1227 10.802 77.1667 10.362 77.1667 9.9C77.1667 6.578 74.7907 4.092 71.5787 4.092C68.1027 4.092 65.7267 6.622 65.7267 9.9C65.7267 13.178 68.0587 15.708 71.8207 15.708C73.9107 15.708 75.5387 14.938 76.6167 13.442L73.9767 11.924C73.5367 12.408 72.7667 12.76 71.8647 12.76C70.6547 12.76 69.6427 12.364 69.2247 11.22ZM69.1587 8.756C69.4667 7.634 70.3027 7.018 71.5567 7.018C72.5467 7.018 73.5367 7.48 73.8887 8.756H69.1587Z" fill="#303030"/>
<path d="M82.3384 6.358V4.4H79.0384V15.4H82.3384V10.428C82.3384 8.25 84.2744 7.7 85.6384 7.92V4.18C84.2524 4.18 82.7784 4.884 82.3384 6.358Z" fill="#303030"/>
<path d="M90.481 6.358V4.4H87.181V15.4H90.481V10.428C90.481 8.25 92.417 7.7 93.781 7.92V4.18C92.395 4.18 90.921 4.884 90.481 6.358Z" fill="#303030"/>
<path d="M102.987 4.4V5.434C102.261 4.598 101.183 4.092 99.7093 4.092C96.8273 4.092 94.4513 6.622 94.4513 9.9C94.4513 13.178 96.8273 15.708 99.7093 15.708C101.183 15.708 102.261 15.202 102.987 14.366V15.4H106.287V4.4H102.987ZM100.369 12.584C98.8513 12.584 97.7513 11.55 97.7513 9.9C97.7513 8.25 98.8513 7.216 100.369 7.216C101.887 7.216 102.987 8.25 102.987 9.9C102.987 11.55 101.887 12.584 100.369 12.584Z" fill="#303030"/>
<mask id="mask0_6_34124" style="mask-type:alpha" maskUnits="userSpaceOnUse" x="0" y="0" width="107" height="16">
<path d="M8.096 15.4H11.88L8.602 9.746C10.296 8.888 11.44 7.172 11.44 5.28C11.44 2.354 9.086 0 6.16 0H0V15.4H3.52V10.34H5.192L8.096 15.4ZM3.52 3.3H6.16C7.128 3.3 7.92 4.158 7.92 5.28C7.92 6.402 7.128 7.26 6.16 7.26H3.52V3.3Z" fill="#303030"/>
<path d="M15.8146 11.22H23.6246C23.7126 10.802 23.7566 10.362 23.7566 9.9C23.7566 6.578 21.3806 4.092 18.1686 4.092C14.6926 4.092 12.3166 6.622 12.3166 9.9C12.3166 13.178 14.6486 15.708 18.4106 15.708C20.5006 15.708 22.1286 14.938 23.2066 13.442L20.5666 11.924C20.1266 12.408 19.3566 12.76 18.4546 12.76C17.2446 12.76 16.2326 12.364 15.8146 11.22ZM15.7486 8.756C16.0566 7.634 16.8926 7.018 18.1466 7.018C19.1366 7.018 20.1266 7.48 20.4786 8.756H15.7486Z" fill="#303030"/>
<path d="M30.8009 15.708C32.9569 15.708 34.8269 14.586 35.7729 12.87L32.8909 11.22C32.5389 11.99 31.7249 12.452 30.7569 12.452C29.3269 12.452 28.2709 11.418 28.2709 9.9C28.2709 8.382 29.3269 7.348 30.7569 7.348C31.7249 7.348 32.5169 7.81 32.8909 8.58L35.7729 6.908C34.8269 5.214 32.9349 4.092 30.8009 4.092C27.4569 4.092 24.9709 6.622 24.9709 9.9C24.9709 13.178 27.4569 15.708 30.8009 15.708Z" fill="#303030"/>
<path d="M40.5084 6.358V4.4H37.2084V15.4H40.5084V10.428C40.5084 8.25 42.4444 7.7 43.8084 7.92V4.18C42.4224 4.18 40.9484 4.884 40.5084 6.358Z" fill="#303030"/>
<path d="M52.4569 4.4V10.406C52.4569 11.968 51.6209 12.672 50.4109 12.672C49.3549 12.672 48.4969 12.034 48.4969 10.67V4.4H45.1969V11.154C45.1969 14.124 47.0889 15.708 49.3109 15.708C50.7629 15.708 51.8629 15.18 52.4569 14.366V15.4H55.7569V4.4H52.4569Z" fill="#303030"/>
<path d="M64.6231 7.568V4.4H62.3571V1.32L59.0571 2.31V4.4H57.2971V7.568H59.0571V11.462C59.0571 14.542 60.3111 15.84 64.6231 15.4V12.408C63.1711 12.496 62.3571 12.408 62.3571 11.462V7.568H64.6231Z" fill="#303030"/>
<path d="M69.2247 11.22H77.0347C77.1227 10.802 77.1667 10.362 77.1667 9.9C77.1667 6.578 74.7907 4.092 71.5787 4.092C68.1027 4.092 65.7267 6.622 65.7267 9.9C65.7267 13.178 68.0587 15.708 71.8207 15.708C73.9107 15.708 75.5387 14.938 76.6167 13.442L73.9767 11.924C73.5367 12.408 72.7667 12.76 71.8647 12.76C70.6547 12.76 69.6427 12.364 69.2247 11.22ZM69.1587 8.756C69.4667 7.634 70.3027 7.018 71.5567 7.018C72.5467 7.018 73.5367 7.48 73.8887 8.756H69.1587Z" fill="#303030"/>
<path d="M82.3384 6.358V4.4H79.0384V15.4H82.3384V10.428C82.3384 8.25 84.2744 7.7 85.6384 7.92V4.18C84.2524 4.18 82.7784 4.884 82.3384 6.358Z" fill="#303030"/>
<path d="M90.481 6.358V4.4H87.181V15.4H90.481V10.428C90.481 8.25 92.417 7.7 93.781 7.92V4.18C92.395 4.18 90.921 4.884 90.481 6.358Z" fill="#303030"/>
<path d="M102.987 4.4V5.434C102.261 4.598 101.183 4.092 99.7093 4.092C96.8273 4.092 94.4513 6.622 94.4513 9.9C94.4513 13.178 96.8273 15.708 99.7093 15.708C101.183 15.708 102.261 15.202 102.987 14.366V15.4H106.287V4.4H102.987ZM100.369 12.584C98.8513 12.584 97.7513 11.55 97.7513 9.9C97.7513 8.25 98.8513 7.216 100.369 7.216C101.887 7.216 102.987 8.25 102.987 9.9C102.987 11.55 101.887 12.584 100.369 12.584Z" fill="#303030"/>
</mask>
<g mask="url(#mask0_6_34124)">
<rect x="57" y="-5" width="54" height="26" fill="#7B83CE"/>
</g>
</g>
<defs>
<clipPath id="clip0_6_34124">
<rect width="107" height="16" fill="white"/>
</clipPath>
</defs>
</svg>
